<?xml version="1.0" encoding="utf-8"?>
<!-- Generator: Adobe Illustrator 24.3.0, SVG Export Plug-In . SVG Version: 6.00 Build 0)  -->
<svg version="1.1" id="Layer_1" xmlns="http://www.w3.org/2000/svg" xmlns:xlink="http://www.w3.org/1999/xlink" x="0px" y="0px"
	 viewBox="0 0 512 512" style="enable-background:new 0 0 512 512;" xml:space="preserve">
<style type="text/css">
	.st0{fill:#173F6C;}
	.st1{fill:#FFFFFF;}
</style>
<g id="XMLID_1_">
	<path id="XMLID_2_" class="st0" d="M512,230.91c0,34.09-27.63,61.72-61.72,61.72s-61.72-27.63-61.72-61.72s27.63-61.72,61.72-61.72
		C484.37,169.33,512,196.82,512,230.91"/>
	<path id="XMLID_3_" class="st0" d="M509.19,230.91c0,32.54-26.37,58.92-58.92,58.92s-58.92-26.37-58.92-58.92
		S417.74,172,450.28,172S509.19,198.37,509.19,230.91"/>
	<polyline id="XMLID_4_" class="st1" points="500.78,230.91 475.53,220.39 485.91,195.28 460.66,205.66 460.8,205.66 450.28,180.55 
		439.76,205.66 414.65,195.28 425.03,220.39 399.92,230.91 425.03,241.43 414.65,266.54 439.76,256.16 450.28,281.41 460.8,256.16 
		485.91,266.54 475.53,241.43 500.78,230.91 	"/>
	<polyline id="XMLID_5_" class="st0" points="480.58,200.61 428.96,222.07 450.28,230.91 459.12,252.37 480.58,200.61 	"/>
	<path id="XMLID_6_" class="st0" d="M295.84,244.24c0,2.67-2.24,4.91-5.05,4.91c-2.67,0-5.05-2.24-5.05-4.91
		c0-2.67,2.38-4.91,5.05-4.91C293.31,239.33,295.84,241.71,295.84,244.24 M300.47,289.69v1.54h-19.22v-1.54l5.19-1.26v-28.48
		l-5.19-1.26v-1.4l14.03-0.98v32.26L300.47,289.69z"/>
	<path id="XMLID_9_" class="st0" d="M355.45,258.83c-4.07,0-6.87,4.35-7.43,10.24h13.89C361.91,263.45,360.22,258.83,355.45,258.83
		 M359.24,288.14c5.75,0,9.68-2.95,10.94-3.65l1.26,2.1c-1.26,1.12-6.59,5.33-14.87,5.33c-10.8,0-18.24-7.01-18.24-17.96
		c0-9.4,7.01-17.96,17.11-17.96c10.24,0,15.29,6.17,15.29,15.43h-22.86C347.32,280.15,350.12,288.14,359.24,288.14z"/>
	<path id="XMLID_12_" class="st0" d="M128.91,258.83c-4.07,0-6.87,4.35-7.43,10.24h13.89C135.22,263.59,133.54,258.83,128.91,258.83
		 M132.7,288.14c5.75,0,9.68-2.95,10.94-3.65l1.26,2.1c-1.26,1.12-6.59,5.33-14.87,5.33c-10.8,0-18.24-7.01-18.24-17.96
		c0-9.4,7.01-17.96,17.11-17.96c10.24,0,15.29,6.17,15.29,15.43h-22.86C120.64,280.15,123.44,288.14,132.7,288.14z"/>
	<path id="XMLID_15_" class="st0" d="M27.91,272.43l-7.01-21.74h-0.14l-7.86,21.74H27.91 M0,289.83l3.09-1.26
		c0,0,15.57-40.26,16.13-41.52c-0.7-2.24-4.07-2.67-6.87-3.09c0-0.7,0-1.82,0-1.82h14.87l15.43,46.29l3.09,1.26v1.54H26.37v-1.54
		l6.31-1.4l-3.79-13.05H11.92l-4.35,13.19l8.14,1.26v1.54H0V289.83z"/>
	<path id="XMLID_18_" class="st0" d="M94.54,256.3c5.75,0,8.42,3.23,8.42,9.4v22.86l4.35,1.26v1.54H89.92v-1.68l4.21-1.12v-21.6
		c0-3.23-0.42-5.89-3.79-5.89c-2.52,0-5.75,2.38-7.15,3.51v23.99l4.21,1.26v1.54H70.28v-1.68l4.21-1.12v-21.6
		c0-3.37-0.56-5.89-3.79-5.89c-2.81,0-5.89,2.38-7.29,3.51v24.13l4.49,1.26v1.54H49.52v-1.82l5.19-1.26v-28.76l-5.19-1.26V257
		l13.89-0.7l0.14,5.19c1.96-1.54,5.89-5.19,11.64-5.19c5.05,0,7.29,2.52,8,5.47C85.15,259.67,89.21,256.3,94.54,256.3"/>
	<path id="XMLID_19_" class="st0" d="M224.86,287.86c4.77,0,9.26-4.77,9.26-14.31c0-9.26-3.93-12.91-8.84-12.91
		c-3.93,0-6.73,1.96-8.14,2.67v22.3C218.83,286.46,221.63,287.86,224.86,287.86 M225.98,307.22v1.96h-23v-1.54l5.19-1.54v-46.15
		l-5.19-1.26v-1.4l13.89-0.84l0.14,4.07c2.24-1.4,6.45-4.07,11.78-4.07c9.4,0,15.01,6.17,15.01,17.11
		c0,12.91-7.72,18.52-15.43,18.52c-5.89,0-9.68-2.38-11.08-3.37v17.11L225.98,307.22z"/>
	<path id="XMLID_22_" class="st0" d="M271.99,256.3c2.95,0,5.05,1.54,5.75,2.24l-2.38,6.59c-0.98-0.7-2.52-1.54-5.19-1.54
		c-3.37,0-5.19,2.24-7.29,4.21v20.62l7.57,1.26v1.68h-21.6v-1.68l5.19-1.26v-28.48l-5.19-1.26v-1.4l13.47-0.84l0.14,8.14h0.14
		C264.28,261.49,266.66,256.3,271.99,256.3"/>
	<path id="XMLID_23_" class="st0" d="M195.26,244.24c0,2.67-2.24,4.91-5.19,4.91c-2.67,0-5.05-2.24-5.05-4.91
		c0-2.67,2.38-4.91,5.05-4.91C193.02,239.33,195.26,241.71,195.26,244.24 M200.03,289.69v1.54h-19.22v-1.54l5.19-1.26v-28.48
		l-5.19-1.26v-1.4l14.03-0.98v32.26L200.03,289.69z"/>
	<path id="XMLID_26_" class="st0" d="M171.56,256.3c2.95,0,5.05,1.54,5.75,2.24l-2.38,6.59c-0.98-0.7-2.52-1.54-5.05-1.54
		c-3.37,0-5.19,2.24-7.29,4.21v20.62l7.57,1.26v1.68h-21.46v-1.68l5.19-1.26v-28.48l-5.19-1.26v-1.4l13.47-0.84l0.14,8.14h0.14
		C163.84,261.49,166.08,256.3,171.56,256.3"/>
	<path id="XMLID_27_" class="st0" d="M329.64,257.98l-0.7,8.56h-2.38l-0.84-6.03c-0.7-0.42-3.23-1.68-6.31-1.68
		c-3.51,0-6.17,1.96-6.17,4.49c0,3.51,4.07,4.91,8.14,6.59c3.93,1.68,10.52,4.21,10.52,10.94c0,6.87-6.45,11.08-14.31,11.08
		c-5.89,0-9.54-1.12-10.8-1.54l-0.7-9.82h2.52l2.1,7.29c0.42,0.14,3.09,1.4,6.31,1.4c4.63,0,8-2.24,8-5.61
		c0-3.65-5.61-5.61-9.54-7.29c-3.65-1.54-9.12-3.79-9.12-10.94c0-5.61,5.19-9.54,12.76-9.54C324.45,256.3,328.8,257.7,329.64,257.98
		"/>
	<polyline id="XMLID_28_" class="st0" points="249.41,342.29 249.55,341.31 253.05,340.47 257.26,311.01 253.9,310.17 
		254.04,309.18 275.5,309.18 274.38,316.2 272.55,316.2 272.27,310.87 262.87,310.87 261.05,324.33 267.08,324.33 268.62,319.7 
		270.17,319.7 268.62,330.65 267.08,330.65 266.8,326.16 260.77,326.16 258.81,340.47 264,341.31 263.86,342.29 249.41,342.29 	"/>
	<path id="XMLID_29_" class="st0" d="M377.34,321.95c-3.65,0-6.45,4.07-6.45,11.78c0,3.93,1.82,6.59,4.91,6.59
		c2.81,0,5.05-2.24,6.03-3.09l0.84,0.98c-1.12,1.4-3.65,4.49-8.98,4.49c-4.91,0-8.14-3.37-8.14-9.54c0-6.73,4.49-12.76,11.92-12.76
		c3.23,0,5.61,0.56,6.17,0.7l-1.12,5.89h-1.82l-0.14-3.93C380.42,322.79,379.3,321.95,377.34,321.95"/>
	<path id="XMLID_30_" class="st0" d="M285.46,311.99c-0.28,1.4-1.26,2.67-2.95,2.67c-1.54,0-2.38-1.26-2.24-2.67
		c0.28-1.54,1.54-2.67,3.09-2.67C284.76,309.18,285.6,310.59,285.46,311.99 M279.15,322.51l-3.51-0.84l0.14-0.7l8.56-0.42
		l-2.81,20.2l3.37,0.84l-0.14,0.7h-8.28L279.15,322.51z"/>
	<path id="XMLID_33_" class="st0" d="M396.69,311.99c-0.28,1.4-1.26,2.67-3.09,2.67c-1.54,0-2.38-1.26-2.24-2.67
		c0.28-1.54,1.54-2.67,3.09-2.67C395.85,309.18,396.84,310.59,396.69,311.99 M390.24,322.51l-3.51-0.84l0.14-0.7l8.56-0.42
		l-2.81,20.2l3.37,0.84l-0.14,0.7h-8.28L390.24,322.51z"/>
	<polyline id="XMLID_36_" class="st0" points="430.36,309.46 427.13,308.62 427.27,307.92 435.55,307.22 430.78,340.75 
		434.15,341.59 434.15,342.29 425.73,342.29 430.36,309.46 	"/>
	<path id="XMLID_37_" class="st0" d="M304.68,327.84c0.56-2.95,0.42-4.07-0.7-4.07c-3.51,0-6.59,7.86-8,10.52l-1.12,8h-4.91
		l2.81-19.78l-3.65-0.84l0.14-0.7l8.56-0.42l-1.26,8.84c2.24-4.07,5.05-8.84,9.68-8.84s3.65,4.49,3.37,6.45l-1.96,13.89l3.37,0.84
		l-0.14,0.7h-8.28L304.68,327.84"/>
	<path id="XMLID_38_" class="st0" d="M355.31,327.84c0.42-2.95,0.42-4.07-0.7-4.07c-3.51,0-6.59,7.86-8,10.52l-1.12,8h-4.91
		l2.81-19.78l-3.65-0.84l0.14-0.7l8.56-0.42l-1.26,8.84c2.24-4.07,5.05-8.84,9.68-8.84c4.63,0,3.65,4.49,3.37,6.45l-1.96,13.89
		l3.37,0.84l-0.14,0.7h-8.28L355.31,327.84"/>
	<path id="XMLID_39_" class="st0" d="M327.12,321.95c-3.79,0-7.01,7.43-7.01,13.75c0,2.38,0.98,3.51,2.24,3.51
		c3.23,0,5.89-7.72,6.73-9.54l0.84-6.59C329.92,322.65,328.66,321.95,327.12,321.95 M335.25,321.25l-2.81,19.36l3.65,0.84v0.7h-8.56
		l0.98-7.01c-1.4,2.81-3.93,7.57-8.42,7.57c-4.07,0-5.05-3.23-5.05-6.87c0-7.57,5.47-15.43,13.89-15.43
		C331.61,320.41,334.27,321.11,335.25,321.25z"/>
	<path id="XMLID_42_" class="st0" d="M412.12,321.95c-3.79,0-7.01,7.43-7.01,13.75c0,2.38,0.98,3.51,2.24,3.51
		c3.23,0,5.89-7.72,6.73-9.54l0.7-6.59C414.65,322.65,413.67,321.95,412.12,321.95 M420.26,321.25l-2.81,19.36l3.65,0.84v0.7h-8.56
		l0.98-7.01c-1.4,2.81-3.93,7.57-8.42,7.57c-4.07,0-5.19-3.23-5.19-6.87c0-7.57,5.47-15.43,13.89-15.43
		C416.61,320.41,419.28,321.11,420.26,321.25z"/>
	<path id="XMLID_45_" class="st0" d="M495.17,288.7c0.42,1.26,1.4,1.82,2.52,1.82c0.56,0,1.12-0.14,1.54-0.42
		c0.42-0.28,0.56-0.7,0.56-1.12c0-0.84-0.7-1.26-1.54-1.4l-1.4-0.42c-0.7-0.14-1.12-0.28-1.54-0.7c-0.56-0.42-0.7-0.98-0.7-1.68
		c0-1.68,1.4-2.38,2.95-2.38s2.67,0.7,3.09,2.24l-0.98,0.28c-0.28-0.98-1.26-1.54-2.24-1.54s-1.96,0.42-1.96,1.4s0.7,1.12,1.54,1.4
		l1.26,0.42c0.7,0.14,1.12,0.28,1.68,0.7c0.56,0.56,0.7,0.98,0.7,1.82c0,0.7-0.42,1.54-0.98,2.1c-0.7,0.56-1.54,0.7-2.24,0.7
		c-1.82,0-2.95-0.7-3.65-2.52L495.17,288.7"/>
	<polyline id="XMLID_46_" class="st0" points="511.16,291.23 509.9,291.23 509.9,283.51 507.09,291.23 506.39,291.23 503.58,283.51 
		503.44,283.51 503.44,291.23 502.46,291.23 502.46,282.39 504.14,282.39 506.95,289.41 509.48,282.39 511.16,282.39 511.16,291.23 
			"/>
</g>
</svg>
